<svg width="208" height="118" viewBox="0 0 208 118" fill="none" xmlns="http://www.w3.org/2000/svg">
<mask id="path-1-outside-1_149_22" maskUnits="userSpaceOnUse" x="-3.05176e-05" y="-0.999542" width="208" height="119" fill="black">
<rect fill="white" x="-3.05176e-05" y="-0.999542" width="208" height="119"/>
<path d="M68.5285 20.3137C71.3337 25.5236 72.1353 31.0005 71.2002 36.8783C70.2651 41.8209 68.2613 46.4964 65.3224 50.6375C61.9828 55.4466 57.1737 57.9847 51.296 58.3854C49.5594 58.3854 47.6892 57.9847 45.9526 57.5839C43.2809 57.0496 40.6092 56.2481 38.6054 54.3779C37.0024 55.0458 36.6017 56.2481 37.5368 57.4504C38.2047 58.1183 39.0062 58.7862 39.9413 59.3205C41.8115 60.5228 43.9488 61.1907 46.0862 61.4579C48.4907 61.7251 50.0937 63.0609 51.5632 64.9311C53.2998 67.2021 54.2349 69.8737 54.9028 72.679C56.5058 79.2247 56.2386 85.6368 53.7005 92.0488C49.5594 102.468 40.7428 106.075 31.1247 104.472C22.976 103.136 16.9647 98.5945 12.5564 91.6481C9.21675 86.4383 7.61374 80.8277 7.21298 74.6828C6.81223 71.076 6.94581 67.4692 7.8809 63.996C8.54883 61.3243 9.75109 59.0534 11.7549 57.0496C15.2281 53.8436 19.2356 53.9771 22.4417 57.4504C22.8424 57.8511 23.1096 58.2519 23.5103 58.519C24.3118 59.187 25.2469 59.187 25.9149 58.6526C26.5828 58.1183 26.85 57.3168 26.5828 56.5153C26.3156 55.8473 26.0485 55.313 25.7813 54.7787C22.0409 46.8971 18.4341 38.8821 15.6288 30.7334C14.8273 28.596 14.293 26.3251 13.8922 24.0541C13.3579 20.4473 14.5602 17.3749 17.499 15.2375C20.5715 12.9666 23.9111 11.3636 27.9186 11.23C31.7926 10.9628 35.8001 10.8292 39.6741 12.1651C37.9375 13.9017 36.3345 15.5047 34.7315 17.2413C34.1971 17.6421 33.7964 18.1764 33.3956 18.7107C32.5941 20.0466 32.7277 20.9817 34.1971 22.1839C35.1322 21.3824 36.0673 20.4473 37.0024 19.6458C40.2085 16.707 43.8152 14.436 47.6892 13.1002C54.3685 10.8292 63.7194 11.6307 68.5285 20.3137ZM57.8417 45.4277C58.1088 44.4926 57.7081 43.8247 56.6394 43.4239C56.5058 43.2904 56.1051 43.1568 55.8379 43.1568C53.7005 42.2217 51.6968 41.0194 49.8266 39.55C51.296 37.5462 52.4983 35.8096 53.8341 33.9394C54.3685 33.2715 54.9028 32.7371 55.4371 32.2028C55.9715 31.4013 55.9715 30.4662 55.4371 29.7983C54.9028 28.9968 53.8341 28.8632 53.0326 29.3975C52.4983 29.7983 51.9639 30.3326 51.5632 30.867C50.3609 32.3364 49.2922 33.9394 48.2235 35.4088C47.8228 36.0768 47.2885 36.7447 46.7541 37.4126C46.0862 36.8783 45.5518 36.4775 44.8839 35.9432C44.216 35.4088 43.5481 34.7409 42.8802 34.073C42.0786 33.5387 41.01 33.5387 40.342 34.2066C39.6741 34.8745 39.5405 35.8096 40.2085 36.6111C40.6092 37.1454 41.1435 37.6798 41.6779 38.0805C42.613 38.8821 43.5481 39.6836 44.4832 40.4851C43.6817 41.5537 42.8802 42.3553 42.2122 43.1568C41.5443 43.9583 41.5443 44.8934 42.0786 45.5613C42.613 46.2292 43.5481 46.3628 44.3496 45.9621C45.0175 45.5613 45.4183 45.1605 45.9526 44.6262C46.4869 44.0919 47.0213 43.4239 47.5556 42.756C47.9564 43.0232 48.3571 43.1568 48.6243 43.4239C50.3609 44.359 52.0975 45.4277 53.9677 46.3628C54.6356 46.63 55.3035 46.8971 56.1051 46.8971C57.0402 46.8971 57.7081 46.2292 57.8417 45.4277Z"/>
<path d="M131.122 56.6488C132.458 64.6639 131.523 72.5454 129.519 80.2934C128.184 85.9039 126.18 91.1137 123.241 95.9228C120.836 99.6632 118.165 103.003 114.424 105.407C111.619 107.411 108.547 108.613 105.073 108.881C102.936 108.881 100.665 108.48 98.6612 107.545C94.9209 105.942 91.8484 103.537 89.8446 99.9304C88.3752 97.3922 87.1729 94.8541 85.9707 92.316C85.4363 91.1138 85.5699 89.7779 85.1692 88.5756C84.902 87.7741 84.5012 86.9726 83.9669 86.1711C83.4326 85.5032 82.4975 85.3696 81.8295 85.7704C81.028 86.0375 80.6273 86.839 80.7609 87.9077C80.8944 88.8428 81.1616 89.9115 81.4288 90.8466C82.7646 95.522 82.7646 100.331 81.9631 105.14C81.8295 106.075 81.5624 107.01 81.028 107.945C80.2265 109.682 79.0243 110.216 77.1541 109.949C75.8182 109.682 74.4824 109.014 73.5473 107.945C72.345 106.61 71.1427 105.14 70.0741 103.537C67.4024 99.1288 66.0665 94.1862 65.3986 88.9764C64.3299 80.6941 64.4635 72.2783 65.6658 63.996C66.0665 61.0571 66.7344 58.3854 68.0703 55.8473C68.6046 54.7787 69.2726 53.8436 70.2077 53.0421C71.5435 51.8398 73.0129 51.8398 74.7495 52.9085C76.8869 54.3779 78.6235 56.3817 80.0929 58.519C80.8944 59.7213 81.5624 61.0571 82.3639 62.2594C82.7646 62.9273 83.0318 63.5953 83.5661 64.2632C84.3677 65.4654 85.3028 65.8662 86.2378 65.3319C87.3065 64.7975 87.5737 63.8624 87.0394 62.5266C86.7722 61.8587 86.505 61.1907 86.2378 60.6564C83.299 53.71 81.028 46.4964 79.1578 39.1492C77.4212 32.0692 77.0205 24.9892 79.0243 17.9092C79.425 16.4398 79.9594 14.9703 80.6273 13.6345C81.1616 12.6994 81.8295 11.8979 82.4975 11.0964C83.5661 10.1613 85.0356 9.89412 86.2378 10.4285C87.7073 11.0964 88.2416 12.5658 88.6424 14.0353C90.1118 20.0466 90.6461 27.5273 88.6424 33.5387C88.5088 34.073 88.3752 34.4737 88.2416 35.1417C89.9782 35.8096 90.6461 35.676 91.3141 34.2066C91.982 32.6036 92.6499 30.867 93.4514 29.3975C94.2529 27.3938 95.188 25.5236 96.3903 23.787C98.1269 20.7145 100.665 18.5771 103.871 17.2413C104.94 16.707 106.142 16.3062 107.478 16.3062C110.283 16.039 112.42 17.7756 112.955 20.5809C113.489 23.5198 112.42 26.8594 111.485 29.6647C110.417 32.7371 108.947 35.676 107.344 38.6149C104.673 43.5575 101.467 48.3666 99.3292 53.5764C98.9284 54.3779 98.6612 55.0458 98.6612 55.8473C98.6612 56.6488 99.062 57.4504 99.8635 57.7175C100.531 57.9847 101.333 57.7175 101.867 57.3168C102.402 56.7824 102.669 56.1145 103.07 55.5802C105.474 50.6375 107.344 44.7598 111.753 41.4202C114.424 39.2828 117.497 39.1492 120.703 40.2179C123.508 41.153 125.512 43.1568 127.115 45.5613C129.252 48.9009 130.454 52.6413 131.122 56.6488ZM94.6537 48.233C95.188 47.0307 95.5888 45.6949 96.1231 44.4926C97.0582 42.3553 98.1269 40.3515 99.062 38.2141C99.5963 37.1454 99.4628 36.2104 98.6612 35.676C97.8597 35.1417 96.6575 35.4088 95.9895 36.2104C95.7224 36.4775 95.5888 36.8783 95.3216 37.279C93.9858 40.3515 92.6499 43.4239 91.3141 46.63C91.1805 47.0307 91.0469 47.2979 90.9133 47.6987C90.9133 49.4353 92.3828 50.3704 93.4514 49.7024C93.9858 49.4353 94.3865 48.7673 94.6537 48.233ZM116.161 84.0338C116.829 83.4994 116.962 82.5643 116.562 81.7628C116.294 81.3621 116.027 80.9613 115.627 80.5605C114.558 79.2247 113.489 77.8888 112.287 76.6866C111.619 76.0187 111.485 75.3507 111.619 74.4156C112.153 71.3432 112.688 68.2707 113.222 65.0647C113.222 64.5304 113.222 63.996 113.222 63.4617C112.955 62.5266 112.287 61.8587 111.352 61.8587C110.55 61.9922 109.749 62.5266 109.615 63.3281C109.482 63.7288 109.482 64.2632 109.482 64.6639C109.081 67.0685 108.814 69.3394 108.547 71.7439L108.012 71.8775C107.077 70.8088 106.142 69.7402 105.207 68.6715C104.405 67.7364 103.337 67.6028 102.535 68.2707C101.6 68.9387 101.6 70.1409 102.402 71.076C102.669 71.4768 102.802 71.6104 103.07 71.8775C104.272 73.2134 105.34 74.5492 106.543 75.8851C107.077 76.4194 107.211 76.9537 106.944 77.6217C106.142 79.3583 105.474 81.0949 104.673 82.6979C104.272 83.7666 103.47 84.5681 102.535 85.1024C101.6 85.7704 101.333 86.7055 101.734 87.6405C102.268 88.5756 103.337 88.8428 104.272 88.4421C105.207 87.9077 106.142 87.3734 106.676 86.5719C107.745 84.9688 108.547 83.2322 109.482 81.4956C109.749 81.0949 109.882 80.6941 110.15 80.0262C110.951 80.8277 111.485 81.4956 112.153 82.1636C112.688 82.8315 113.222 83.4994 113.89 84.0338C114.558 84.5681 115.493 84.7017 116.161 84.0338Z"/>
<path d="M200.161 54.3779C200.294 56.1145 200.294 57.9847 200.161 59.7213C199.894 62.7938 199.76 65.8662 199.359 68.9387C198.424 75.0836 197.088 81.2285 194.55 86.9726C192.413 91.6481 189.741 96.0564 186.001 99.6632C183.062 102.468 179.722 104.606 175.715 105.407C173.043 106.075 170.371 105.808 167.833 104.873C163.558 103.27 160.219 100.598 157.948 96.7243C156.612 94.3198 155.41 91.7817 154.208 89.2436C153.807 88.0413 153.673 86.839 153.406 85.5032C153.272 84.5681 152.872 83.4994 152.07 82.9651C151.402 82.4307 150.734 82.2971 149.933 82.6979C149.265 83.0987 148.864 83.7666 148.998 84.5681C149.131 85.6368 149.398 86.7054 149.666 87.7741C151.001 92.4496 151.001 97.2587 150.334 101.934C150.066 103.136 149.666 104.205 149.131 105.14C148.463 106.61 147.261 107.144 145.792 106.877C144.322 106.743 142.986 106.075 142.051 105.007C140.715 103.671 139.38 102.068 138.444 100.465C135.639 96.0564 134.303 91.1138 133.635 85.9039C132.567 77.6217 132.7 69.0722 133.903 60.6564C134.303 57.9847 134.971 55.313 136.307 52.9085C136.708 51.8398 137.376 51.0383 138.177 50.2368C139.647 48.7673 141.25 48.6338 143.12 49.9696C145.658 51.8398 147.662 54.2443 149.265 56.916C150.066 58.1183 150.734 59.4541 151.402 60.6564C151.669 61.1907 152.07 61.5915 152.471 61.9922C153.005 62.5266 153.94 62.6602 154.608 62.1258C155.41 61.8587 155.677 61.0571 155.543 60.2556C155.41 59.7213 155.143 59.0534 154.875 58.519C151.803 51.3054 149.265 43.8247 147.395 36.0768C145.658 28.9968 145.391 21.9168 147.261 14.8368C147.662 13.3673 148.33 11.8979 148.998 10.562C149.398 9.62696 150.066 8.82545 150.734 8.02394C152.337 6.55451 154.074 6.68809 155.543 8.29111C156.478 9.35978 157.013 10.6956 157.146 12.0315C157.681 15.5047 158.081 18.8443 157.681 22.4511C157.414 25.6571 157.28 28.9968 157.146 32.2028C158.482 32.47 158.616 32.47 158.883 31.4013C159.284 30.3326 159.551 29.1304 159.952 28.0617C161.421 23.3862 163.959 19.3787 167.967 16.3062C171.039 13.9017 174.512 13.3673 178.253 14.3024C180.39 14.9703 182.394 15.6383 184.398 16.5734C186.802 17.7756 188.672 19.6458 190.008 22.0504C193.348 27.9281 196.287 33.9394 197.89 40.6187C198.958 45.1605 199.894 49.7024 200.161 54.3779ZM174.379 81.6292C175.982 75.3507 176.917 69.0722 176.917 62.6602C176.783 59.8549 176.65 57.1832 176.383 54.5115C175.848 49.4353 174.646 44.6262 172.642 39.9507C172.375 39.4164 171.974 38.8821 171.707 38.3477C171.173 37.6798 170.238 37.4126 169.436 37.8134C168.768 38.2141 168.368 39.0156 168.501 39.8171C168.635 40.2179 168.902 40.6187 169.035 41.153C169.837 43.6911 170.906 46.2292 171.574 48.9009C173.978 59.4541 173.444 70.0073 170.772 80.5605C170.638 80.9613 170.505 81.3621 170.371 81.7628C170.238 82.9651 170.638 83.9002 171.707 84.1673C172.642 84.4345 173.444 84.0338 173.978 82.9651C174.112 82.4307 174.245 82.03 174.379 81.6292Z"/>
</mask>
<path d="M68.5285 20.3137C71.3337 25.5236 72.1353 31.0005 71.2002 36.8783C70.2651 41.8209 68.2613 46.4964 65.3224 50.6375C61.9828 55.4466 57.1737 57.9847 51.296 58.3854C49.5594 58.3854 47.6892 57.9847 45.9526 57.5839C43.2809 57.0496 40.6092 56.2481 38.6054 54.3779C37.0024 55.0458 36.6017 56.2481 37.5368 57.4504C38.2047 58.1183 39.0062 58.7862 39.9413 59.3205C41.8115 60.5228 43.9488 61.1907 46.0862 61.4579C48.4907 61.7251 50.0937 63.0609 51.5632 64.9311C53.2998 67.2021 54.2349 69.8737 54.9028 72.679C56.5058 79.2247 56.2386 85.6368 53.7005 92.0488C49.5594 102.468 40.7428 106.075 31.1247 104.472C22.976 103.136 16.9647 98.5945 12.5564 91.6481C9.21675 86.4383 7.61374 80.8277 7.21298 74.6828C6.81223 71.076 6.94581 67.4692 7.8809 63.996C8.54883 61.3243 9.75109 59.0534 11.7549 57.0496C15.2281 53.8436 19.2356 53.9771 22.4417 57.4504C22.8424 57.8511 23.1096 58.2519 23.5103 58.519C24.3118 59.187 25.2469 59.187 25.9149 58.6526C26.5828 58.1183 26.85 57.3168 26.5828 56.5153C26.3156 55.8473 26.0485 55.313 25.7813 54.7787C22.0409 46.8971 18.4341 38.8821 15.6288 30.7334C14.8273 28.596 14.293 26.3251 13.8922 24.0541C13.3579 20.4473 14.5602 17.3749 17.499 15.2375C20.5715 12.9666 23.9111 11.3636 27.9186 11.23C31.7926 10.9628 35.8001 10.8292 39.6741 12.1651C37.9375 13.9017 36.3345 15.5047 34.7315 17.2413C34.1971 17.6421 33.7964 18.1764 33.3956 18.7107C32.5941 20.0466 32.7277 20.9817 34.1971 22.1839C35.1322 21.3824 36.0673 20.4473 37.0024 19.6458C40.2085 16.707 43.8152 14.436 47.6892 13.1002C54.3685 10.8292 63.7194 11.6307 68.5285 20.3137ZM57.8417 45.4277C58.1088 44.4926 57.7081 43.8247 56.6394 43.4239C56.5058 43.2904 56.1051 43.1568 55.8379 43.1568C53.7005 42.2217 51.6968 41.0194 49.8266 39.55C51.296 37.5462 52.4983 35.8096 53.8341 33.9394C54.3685 33.2715 54.9028 32.7371 55.4371 32.2028C55.9715 31.4013 55.9715 30.4662 55.4371 29.7983C54.9028 28.9968 53.8341 28.8632 53.0326 29.3975C52.4983 29.7983 51.9639 30.3326 51.5632 30.867C50.3609 32.3364 49.2922 33.9394 48.2235 35.4088C47.8228 36.0768 47.2885 36.7447 46.7541 37.4126C46.0862 36.8783 45.5518 36.4775 44.8839 35.9432C44.216 35.4088 43.5481 34.7409 42.8802 34.073C42.0786 33.5387 41.01 33.5387 40.342 34.2066C39.6741 34.8745 39.5405 35.8096 40.2085 36.6111C40.6092 37.1454 41.1435 37.6798 41.6779 38.0805C42.613 38.8821 43.5481 39.6836 44.4832 40.4851C43.6817 41.5537 42.8802 42.3553 42.2122 43.1568C41.5443 43.9583 41.5443 44.8934 42.0786 45.5613C42.613 46.2292 43.5481 46.3628 44.3496 45.9621C45.0175 45.5613 45.4183 45.1605 45.9526 44.6262C46.4869 44.0919 47.0213 43.4239 47.5556 42.756C47.9564 43.0232 48.3571 43.1568 48.6243 43.4239C50.3609 44.359 52.0975 45.4277 53.9677 46.3628C54.6356 46.63 55.3035 46.8971 56.1051 46.8971C57.0402 46.8971 57.7081 46.2292 57.8417 45.4277Z" fill="white"/>
<path d="M131.122 56.6488C132.458 64.6639 131.523 72.5454 129.519 80.2934C128.184 85.9039 126.18 91.1137 123.241 95.9228C120.836 99.6632 118.165 103.003 114.424 105.407C111.619 107.411 108.547 108.613 105.073 108.881C102.936 108.881 100.665 108.48 98.6612 107.545C94.9209 105.942 91.8484 103.537 89.8446 99.9304C88.3752 97.3922 87.1729 94.8541 85.9707 92.316C85.4363 91.1138 85.5699 89.7779 85.1692 88.5756C84.902 87.7741 84.5012 86.9726 83.9669 86.1711C83.4326 85.5032 82.4975 85.3696 81.8295 85.7704C81.028 86.0375 80.6273 86.839 80.7609 87.9077C80.8944 88.8428 81.1616 89.9115 81.4288 90.8466C82.7646 95.522 82.7646 100.331 81.9631 105.14C81.8295 106.075 81.5624 107.01 81.028 107.945C80.2265 109.682 79.0243 110.216 77.1541 109.949C75.8182 109.682 74.4824 109.014 73.5473 107.945C72.345 106.61 71.1427 105.14 70.0741 103.537C67.4024 99.1288 66.0665 94.1862 65.3986 88.9764C64.3299 80.6941 64.4635 72.2783 65.6658 63.996C66.0665 61.0571 66.7344 58.3854 68.0703 55.8473C68.6046 54.7787 69.2726 53.8436 70.2077 53.0421C71.5435 51.8398 73.0129 51.8398 74.7495 52.9085C76.8869 54.3779 78.6235 56.3817 80.0929 58.519C80.8944 59.7213 81.5624 61.0571 82.3639 62.2594C82.7646 62.9273 83.0318 63.5953 83.5661 64.2632C84.3677 65.4654 85.3028 65.8662 86.2378 65.3319C87.3065 64.7975 87.5737 63.8624 87.0394 62.5266C86.7722 61.8587 86.505 61.1907 86.2378 60.6564C83.299 53.71 81.028 46.4964 79.1578 39.1492C77.4212 32.0692 77.0205 24.9892 79.0243 17.9092C79.425 16.4398 79.9594 14.9703 80.6273 13.6345C81.1616 12.6994 81.8295 11.8979 82.4975 11.0964C83.5661 10.1613 85.0356 9.89412 86.2378 10.4285C87.7073 11.0964 88.2416 12.5658 88.6424 14.0353C90.1118 20.0466 90.6461 27.5273 88.6424 33.5387C88.5088 34.073 88.3752 34.4737 88.2416 35.1417C89.9782 35.8096 90.6461 35.676 91.3141 34.2066C91.982 32.6036 92.6499 30.867 93.4514 29.3975C94.2529 27.3938 95.188 25.5236 96.3903 23.787C98.1269 20.7145 100.665 18.5771 103.871 17.2413C104.94 16.707 106.142 16.3062 107.478 16.3062C110.283 16.039 112.42 17.7756 112.955 20.5809C113.489 23.5198 112.42 26.8594 111.485 29.6647C110.417 32.7371 108.947 35.676 107.344 38.6149C104.673 43.5575 101.467 48.3666 99.3292 53.5764C98.9284 54.3779 98.6612 55.0458 98.6612 55.8473C98.6612 56.6488 99.062 57.4504 99.8635 57.7175C100.531 57.9847 101.333 57.7175 101.867 57.3168C102.402 56.7824 102.669 56.1145 103.07 55.5802C105.474 50.6375 107.344 44.7598 111.753 41.4202C114.424 39.2828 117.497 39.1492 120.703 40.2179C123.508 41.153 125.512 43.1568 127.115 45.5613C129.252 48.9009 130.454 52.6413 131.122 56.6488ZM94.6537 48.233C95.188 47.0307 95.5888 45.6949 96.1231 44.4926C97.0582 42.3553 98.1269 40.3515 99.062 38.2141C99.5963 37.1454 99.4628 36.2104 98.6612 35.676C97.8597 35.1417 96.6575 35.4088 95.9895 36.2104C95.7224 36.4775 95.5888 36.8783 95.3216 37.279C93.9858 40.3515 92.6499 43.4239 91.3141 46.63C91.1805 47.0307 91.0469 47.2979 90.9133 47.6987C90.9133 49.4353 92.3828 50.3704 93.4514 49.7024C93.9858 49.4353 94.3865 48.7673 94.6537 48.233ZM116.161 84.0338C116.829 83.4994 116.962 82.5643 116.562 81.7628C116.294 81.3621 116.027 80.9613 115.627 80.5605C114.558 79.2247 113.489 77.8888 112.287 76.6866C111.619 76.0187 111.485 75.3507 111.619 74.4156C112.153 71.3432 112.688 68.2707 113.222 65.0647C113.222 64.5304 113.222 63.996 113.222 63.4617C112.955 62.5266 112.287 61.8587 111.352 61.8587C110.55 61.9922 109.749 62.5266 109.615 63.3281C109.482 63.7288 109.482 64.2632 109.482 64.6639C109.081 67.0685 108.814 69.3394 108.547 71.7439L108.012 71.8775C107.077 70.8088 106.142 69.7402 105.207 68.6715C104.405 67.7364 103.337 67.6028 102.535 68.2707C101.6 68.9387 101.6 70.1409 102.402 71.076C102.669 71.4768 102.802 71.6104 103.07 71.8775C104.272 73.2134 105.34 74.5492 106.543 75.8851C107.077 76.4194 107.211 76.9537 106.944 77.6217C106.142 79.3583 105.474 81.0949 104.673 82.6979C104.272 83.7666 103.47 84.5681 102.535 85.1024C101.6 85.7704 101.333 86.7055 101.734 87.6405C102.268 88.5756 103.337 88.8428 104.272 88.4421C105.207 87.9077 106.142 87.3734 106.676 86.5719C107.745 84.9688 108.547 83.2322 109.482 81.4956C109.749 81.0949 109.882 80.6941 110.15 80.0262C110.951 80.8277 111.485 81.4956 112.153 82.1636C112.688 82.8315 113.222 83.4994 113.89 84.0338C114.558 84.5681 115.493 84.7017 116.161 84.0338Z" fill="white"/>
<path d="M200.161 54.3779C200.294 56.1145 200.294 57.9847 200.161 59.7213C199.894 62.7938 199.76 65.8662 199.359 68.9387C198.424 75.0836 197.088 81.2285 194.55 86.9726C192.413 91.6481 189.741 96.0564 186.001 99.6632C183.062 102.468 179.722 104.606 175.715 105.407C173.043 106.075 170.371 105.808 167.833 104.873C163.558 103.27 160.219 100.598 157.948 96.7243C156.612 94.3198 155.41 91.7817 154.208 89.2436C153.807 88.0413 153.673 86.839 153.406 85.5032C153.272 84.5681 152.872 83.4994 152.07 82.9651C151.402 82.4307 150.734 82.2971 149.933 82.6979C149.265 83.0987 148.864 83.7666 148.998 84.5681C149.131 85.6368 149.398 86.7054 149.666 87.7741C151.001 92.4496 151.001 97.2587 150.334 101.934C150.066 103.136 149.666 104.205 149.131 105.14C148.463 106.61 147.261 107.144 145.792 106.877C144.322 106.743 142.986 106.075 142.051 105.007C140.715 103.671 139.38 102.068 138.444 100.465C135.639 96.0564 134.303 91.1138 133.635 85.9039C132.567 77.6217 132.7 69.0722 133.903 60.6564C134.303 57.9847 134.971 55.313 136.307 52.9085C136.708 51.8398 137.376 51.0383 138.177 50.2368C139.647 48.7673 141.25 48.6338 143.12 49.9696C145.658 51.8398 147.662 54.2443 149.265 56.916C150.066 58.1183 150.734 59.4541 151.402 60.6564C151.669 61.1907 152.07 61.5915 152.471 61.9922C153.005 62.5266 153.94 62.6602 154.608 62.1258C155.41 61.8587 155.677 61.0571 155.543 60.2556C155.41 59.7213 155.143 59.0534 154.875 58.519C151.803 51.3054 149.265 43.8247 147.395 36.0768C145.658 28.9968 145.391 21.9168 147.261 14.8368C147.662 13.3673 148.33 11.8979 148.998 10.562C149.398 9.62696 150.066 8.82545 150.734 8.02394C152.337 6.55451 154.074 6.68809 155.543 8.29111C156.478 9.35978 157.013 10.6956 157.146 12.0315C157.681 15.5047 158.081 18.8443 157.681 22.4511C157.414 25.6571 157.28 28.9968 157.146 32.2028C158.482 32.47 158.616 32.47 158.883 31.4013C159.284 30.3326 159.551 29.1304 159.952 28.0617C161.421 23.3862 163.959 19.3787 167.967 16.3062C171.039 13.9017 174.512 13.3673 178.253 14.3024C180.39 14.9703 182.394 15.6383 184.398 16.5734C186.802 17.7756 188.672 19.6458 190.008 22.0504C193.348 27.9281 196.287 33.9394 197.89 40.6187C198.958 45.1605 199.894 49.7024 200.161 54.3779ZM174.379 81.6292C175.982 75.3507 176.917 69.0722 176.917 62.6602C176.783 59.8549 176.65 57.1832 176.383 54.5115C175.848 49.4353 174.646 44.6262 172.642 39.9507C172.375 39.4164 171.974 38.8821 171.707 38.3477C171.173 37.6798 170.238 37.4126 169.436 37.8134C168.768 38.2141 168.368 39.0156 168.501 39.8171C168.635 40.2179 168.902 40.6187 169.035 41.153C169.837 43.6911 170.906 46.2292 171.574 48.9009C173.978 59.4541 173.444 70.0073 170.772 80.5605C170.638 80.9613 170.505 81.3621 170.371 81.7628C170.238 82.9651 170.638 83.9002 171.707 84.1673C172.642 84.4345 173.444 84.0338 173.978 82.9651C174.112 82.4307 174.245 82.03 174.379 81.6292Z" fill="white"/>
<path d="M68.5285 20.3137C71.3337 25.5236 72.1353 31.0005 71.2002 36.8783C70.2651 41.8209 68.2613 46.4964 65.3224 50.6375C61.9828 55.4466 57.1737 57.9847 51.296 58.3854C49.5594 58.3854 47.6892 57.9847 45.9526 57.5839C43.2809 57.0496 40.6092 56.2481 38.6054 54.3779C37.0024 55.0458 36.6017 56.2481 37.5368 57.4504C38.2047 58.1183 39.0062 58.7862 39.9413 59.3205C41.8115 60.5228 43.9488 61.1907 46.0862 61.4579C48.4907 61.7251 50.0937 63.0609 51.5632 64.9311C53.2998 67.2021 54.2349 69.8737 54.9028 72.679C56.5058 79.2247 56.2386 85.6368 53.7005 92.0488C49.5594 102.468 40.7428 106.075 31.1247 104.472C22.976 103.136 16.9647 98.5945 12.5564 91.6481C9.21675 86.4383 7.61374 80.8277 7.21298 74.6828C6.81223 71.076 6.94581 67.4692 7.8809 63.996C8.54883 61.3243 9.75109 59.0534 11.7549 57.0496C15.2281 53.8436 19.2356 53.9771 22.4417 57.4504C22.8424 57.8511 23.1096 58.2519 23.5103 58.519C24.3118 59.187 25.2469 59.187 25.9149 58.6526C26.5828 58.1183 26.85 57.3168 26.5828 56.5153C26.3156 55.8473 26.0485 55.313 25.7813 54.7787C22.0409 46.8971 18.4341 38.8821 15.6288 30.7334C14.8273 28.596 14.293 26.3251 13.8922 24.0541C13.3579 20.4473 14.5602 17.3749 17.499 15.2375C20.5715 12.9666 23.9111 11.3636 27.9186 11.23C31.7926 10.9628 35.8001 10.8292 39.6741 12.1651C37.9375 13.9017 36.3345 15.5047 34.7315 17.2413C34.1971 17.6421 33.7964 18.1764 33.3956 18.7107C32.5941 20.0466 32.7277 20.9817 34.1971 22.1839C35.1322 21.3824 36.0673 20.4473 37.0024 19.6458C40.2085 16.707 43.8152 14.436 47.6892 13.1002C54.3685 10.8292 63.7194 11.6307 68.5285 20.3137ZM57.8417 45.4277C58.1088 44.4926 57.7081 43.8247 56.6394 43.4239C56.5058 43.2904 56.1051 43.1568 55.8379 43.1568C53.7005 42.2217 51.6968 41.0194 49.8266 39.55C51.296 37.5462 52.4983 35.8096 53.8341 33.9394C54.3685 33.2715 54.9028 32.7371 55.4371 32.2028C55.9715 31.4013 55.9715 30.4662 55.4371 29.7983C54.9028 28.9968 53.8341 28.8632 53.0326 29.3975C52.4983 29.7983 51.9639 30.3326 51.5632 30.867C50.3609 32.3364 49.2922 33.9394 48.2235 35.4088C47.8228 36.0768 47.2885 36.7447 46.7541 37.4126C46.0862 36.8783 45.5518 36.4775 44.8839 35.9432C44.216 35.4088 43.5481 34.7409 42.8802 34.073C42.0786 33.5387 41.01 33.5387 40.342 34.2066C39.6741 34.8745 39.5405 35.8096 40.2085 36.6111C40.6092 37.1454 41.1435 37.6798 41.6779 38.0805C42.613 38.8821 43.5481 39.6836 44.4832 40.4851C43.6817 41.5537 42.8802 42.3553 42.2122 43.1568C41.5443 43.9583 41.5443 44.8934 42.0786 45.5613C42.613 46.2292 43.5481 46.3628 44.3496 45.9621C45.0175 45.5613 45.4183 45.1605 45.9526 44.6262C46.4869 44.0919 47.0213 43.4239 47.5556 42.756C47.9564 43.0232 48.3571 43.1568 48.6243 43.4239C50.3609 44.359 52.0975 45.4277 53.9677 46.3628C54.6356 46.63 55.3035 46.8971 56.1051 46.8971C57.0402 46.8971 57.7081 46.2292 57.8417 45.4277Z" stroke="black" stroke-width="14" mask="url(#path-1-outside-1_149_22)"/>
<path d="M131.122 56.6488C132.458 64.6639 131.523 72.5454 129.519 80.2934C128.184 85.9039 126.18 91.1137 123.241 95.9228C120.836 99.6632 118.165 103.003 114.424 105.407C111.619 107.411 108.547 108.613 105.073 108.881C102.936 108.881 100.665 108.48 98.6612 107.545C94.9209 105.942 91.8484 103.537 89.8446 99.9304C88.3752 97.3922 87.1729 94.8541 85.9707 92.316C85.4363 91.1138 85.5699 89.7779 85.1692 88.5756C84.902 87.7741 84.5012 86.9726 83.9669 86.1711C83.4326 85.5032 82.4975 85.3696 81.8295 85.7704C81.028 86.0375 80.6273 86.839 80.7609 87.9077C80.8944 88.8428 81.1616 89.9115 81.4288 90.8466C82.7646 95.522 82.7646 100.331 81.9631 105.14C81.8295 106.075 81.5624 107.01 81.028 107.945C80.2265 109.682 79.0243 110.216 77.1541 109.949C75.8182 109.682 74.4824 109.014 73.5473 107.945C72.345 106.61 71.1427 105.14 70.0741 103.537C67.4024 99.1288 66.0665 94.1862 65.3986 88.9764C64.3299 80.6941 64.4635 72.2783 65.6658 63.996C66.0665 61.0571 66.7344 58.3854 68.0703 55.8473C68.6046 54.7787 69.2726 53.8436 70.2077 53.0421C71.5435 51.8398 73.0129 51.8398 74.7495 52.9085C76.8869 54.3779 78.6235 56.3817 80.0929 58.519C80.8944 59.7213 81.5624 61.0571 82.3639 62.2594C82.7646 62.9273 83.0318 63.5953 83.5661 64.2632C84.3677 65.4654 85.3028 65.8662 86.2378 65.3319C87.3065 64.7975 87.5737 63.8624 87.0394 62.5266C86.7722 61.8587 86.505 61.1907 86.2378 60.6564C83.299 53.71 81.028 46.4964 79.1578 39.1492C77.4212 32.0692 77.0205 24.9892 79.0243 17.9092C79.425 16.4398 79.9594 14.9703 80.6273 13.6345C81.1616 12.6994 81.8295 11.8979 82.4975 11.0964C83.5661 10.1613 85.0356 9.89412 86.2378 10.4285C87.7073 11.0964 88.2416 12.5658 88.6424 14.0353C90.1118 20.0466 90.6461 27.5273 88.6424 33.5387C88.5088 34.073 88.3752 34.4737 88.2416 35.1417C89.9782 35.8096 90.6461 35.676 91.3141 34.2066C91.982 32.6036 92.6499 30.867 93.4514 29.3975C94.2529 27.3938 95.188 25.5236 96.3903 23.787C98.1269 20.7145 100.665 18.5771 103.871 17.2413C104.94 16.707 106.142 16.3062 107.478 16.3062C110.283 16.039 112.42 17.7756 112.955 20.5809C113.489 23.5198 112.42 26.8594 111.485 29.6647C110.417 32.7371 108.947 35.676 107.344 38.6149C104.673 43.5575 101.467 48.3666 99.3292 53.5764C98.9284 54.3779 98.6612 55.0458 98.6612 55.8473C98.6612 56.6488 99.062 57.4504 99.8635 57.7175C100.531 57.9847 101.333 57.7175 101.867 57.3168C102.402 56.7824 102.669 56.1145 103.07 55.5802C105.474 50.6375 107.344 44.7598 111.753 41.4202C114.424 39.2828 117.497 39.1492 120.703 40.2179C123.508 41.153 125.512 43.1568 127.115 45.5613C129.252 48.9009 130.454 52.6413 131.122 56.6488ZM94.6537 48.233C95.188 47.0307 95.5888 45.6949 96.1231 44.4926C97.0582 42.3553 98.1269 40.3515 99.062 38.2141C99.5963 37.1454 99.4628 36.2104 98.6612 35.676C97.8597 35.1417 96.6575 35.4088 95.9895 36.2104C95.7224 36.4775 95.5888 36.8783 95.3216 37.279C93.9858 40.3515 92.6499 43.4239 91.3141 46.63C91.1805 47.0307 91.0469 47.2979 90.9133 47.6987C90.9133 49.4353 92.3828 50.3704 93.4514 49.7024C93.9858 49.4353 94.3865 48.7673 94.6537 48.233ZM116.161 84.0338C116.829 83.4994 116.962 82.5643 116.562 81.7628C116.294 81.3621 116.027 80.9613 115.627 80.5605C114.558 79.2247 113.489 77.8888 112.287 76.6866C111.619 76.0187 111.485 75.3507 111.619 74.4156C112.153 71.3432 112.688 68.2707 113.222 65.0647C113.222 64.5304 113.222 63.996 113.222 63.4617C112.955 62.5266 112.287 61.8587 111.352 61.8587C110.55 61.9922 109.749 62.5266 109.615 63.3281C109.482 63.7288 109.482 64.2632 109.482 64.6639C109.081 67.0685 108.814 69.3394 108.547 71.7439L108.012 71.8775C107.077 70.8088 106.142 69.7402 105.207 68.6715C104.405 67.7364 103.337 67.6028 102.535 68.2707C101.6 68.9387 101.6 70.1409 102.402 71.076C102.669 71.4768 102.802 71.6104 103.07 71.8775C104.272 73.2134 105.34 74.5492 106.543 75.8851C107.077 76.4194 107.211 76.9537 106.944 77.6217C106.142 79.3583 105.474 81.0949 104.673 82.6979C104.272 83.7666 103.47 84.5681 102.535 85.1024C101.6 85.7704 101.333 86.7055 101.734 87.6405C102.268 88.5756 103.337 88.8428 104.272 88.4421C105.207 87.9077 106.142 87.3734 106.676 86.5719C107.745 84.9688 108.547 83.2322 109.482 81.4956C109.749 81.0949 109.882 80.6941 110.15 80.0262C110.951 80.8277 111.485 81.4956 112.153 82.1636C112.688 82.8315 113.222 83.4994 113.89 84.0338C114.558 84.5681 115.493 84.7017 116.161 84.0338Z" stroke="black" stroke-width="14" mask="url(#path-1-outside-1_149_22)"/>
<path d="M200.161 54.3779C200.294 56.1145 200.294 57.9847 200.161 59.7213C199.894 62.7938 199.76 65.8662 199.359 68.9387C198.424 75.0836 197.088 81.2285 194.55 86.9726C192.413 91.6481 189.741 96.0564 186.001 99.6632C183.062 102.468 179.722 104.606 175.715 105.407C173.043 106.075 170.371 105.808 167.833 104.873C163.558 103.27 160.219 100.598 157.948 96.7243C156.612 94.3198 155.41 91.7817 154.208 89.2436C153.807 88.0413 153.673 86.839 153.406 85.5032C153.272 84.5681 152.872 83.4994 152.07 82.9651C151.402 82.4307 150.734 82.2971 149.933 82.6979C149.265 83.0987 148.864 83.7666 148.998 84.5681C149.131 85.6368 149.398 86.7054 149.666 87.7741C151.001 92.4496 151.001 97.2587 150.334 101.934C150.066 103.136 149.666 104.205 149.131 105.14C148.463 106.61 147.261 107.144 145.792 106.877C144.322 106.743 142.986 106.075 142.051 105.007C140.715 103.671 139.38 102.068 138.444 100.465C135.639 96.0564 134.303 91.1138 133.635 85.9039C132.567 77.6217 132.7 69.0722 133.903 60.6564C134.303 57.9847 134.971 55.313 136.307 52.9085C136.708 51.8398 137.376 51.0383 138.177 50.2368C139.647 48.7673 141.25 48.6338 143.12 49.9696C145.658 51.8398 147.662 54.2443 149.265 56.916C150.066 58.1183 150.734 59.4541 151.402 60.6564C151.669 61.1907 152.07 61.5915 152.471 61.9922C153.005 62.5266 153.94 62.6602 154.608 62.1258C155.41 61.8587 155.677 61.0571 155.543 60.2556C155.41 59.7213 155.143 59.0534 154.875 58.519C151.803 51.3054 149.265 43.8247 147.395 36.0768C145.658 28.9968 145.391 21.9168 147.261 14.8368C147.662 13.3673 148.33 11.8979 148.998 10.562C149.398 9.62696 150.066 8.82545 150.734 8.02394C152.337 6.55451 154.074 6.68809 155.543 8.29111C156.478 9.35978 157.013 10.6956 157.146 12.0315C157.681 15.5047 158.081 18.8443 157.681 22.4511C157.414 25.6571 157.28 28.9968 157.146 32.2028C158.482 32.47 158.616 32.47 158.883 31.4013C159.284 30.3326 159.551 29.1304 159.952 28.0617C161.421 23.3862 163.959 19.3787 167.967 16.3062C171.039 13.9017 174.512 13.3673 178.253 14.3024C180.39 14.9703 182.394 15.6383 184.398 16.5734C186.802 17.7756 188.672 19.6458 190.008 22.0504C193.348 27.9281 196.287 33.9394 197.89 40.6187C198.958 45.1605 199.894 49.7024 200.161 54.3779ZM174.379 81.6292C175.982 75.3507 176.917 69.0722 176.917 62.6602C176.783 59.8549 176.65 57.1832 176.383 54.5115C175.848 49.4353 174.646 44.6262 172.642 39.9507C172.375 39.4164 171.974 38.8821 171.707 38.3477C171.173 37.6798 170.238 37.4126 169.436 37.8134C168.768 38.2141 168.368 39.0156 168.501 39.8171C168.635 40.2179 168.902 40.6187 169.035 41.153C169.837 43.6911 170.906 46.2292 171.574 48.9009C173.978 59.4541 173.444 70.0073 170.772 80.5605C170.638 80.9613 170.505 81.3621 170.371 81.7628C170.238 82.9651 170.638 83.9002 171.707 84.1673C172.642 84.4345 173.444 84.0338 173.978 82.9651C174.112 82.4307 174.245 82.03 174.379 81.6292Z" stroke="black" stroke-width="14" mask="url(#path-1-outside-1_149_22)"/>
</svg>
